<?xml version="1.0" standalone="no"?>
<!DOCTYPE svg PUBLIC "-//W3C//DTD SVG 20010904//EN"
 "http://www.w3.org/TR/2001/REC-SVG-20010904/DTD/svg10.dtd">
<svg version="1.0" xmlns="http://www.w3.org/2000/svg"
 width="1000.000000pt" height="1000.000000pt" viewBox="0 0 1000.000000 1000.000000"
 preserveAspectRatio="xMidYMid meet">
<metadata>
Created by potrace 1.16, written by Peter Selinger 2001-2019
</metadata>
<g transform="translate(0.000000,1000.000000) scale(0.100000,-0.100000)"
fill="#000000" stroke="none">
<path d="M3615 9993 c-109 -10 -355 -47 -476 -73 -1186 -251 -2205 -1045
-2739 -2135 -195 -398 -302 -748 -372 -1216 -21 -140 -23 -189 -23 -529 0
-406 9 -507 71 -805 247 -1177 1014 -2181 2084 -2724 625 -318 1265 -458 1971
-430 526 21 1046 150 1527 380 239 114 475 257 682 414 54 41 103 75 107 75 4
0 660 -652 1458 -1448 1292 -1291 1456 -1452 1505 -1473 48 -21 70 -24 175
-24 112 0 124 2 180 29 77 38 163 124 201 201 27 57 29 67 29 185 0 122 -1
126 -33 185 -27 51 -272 300 -1476 1504 l-1444 1444 60 76 c72 90 247 353 310
466 279 496 443 1025 498 1600 13 144 13 541 0 692 -127 1393 -967 2609 -2227
3224 -404 197 -843 322 -1313 374 -124 14 -631 19 -755 8z m547 -843 c644 -44
1244 -278 1750 -682 134 -107 372 -345 477 -478 381 -480 610 -1042 671 -1643
17 -159 8 -607 -14 -742 -62 -378 -153 -663 -310 -972 -305 -598 -774 -1068
-1368 -1369 -344 -174 -678 -275 -1057 -319 -166 -20 -536 -20 -702 0 -596 69
-1133 294 -1609 674 -125 100 -365 340 -470 471 -663 830 -861 1931 -526 2936
307 919 1027 1647 1940 1960 400 137 805 192 1218 164z"/>
</g>
</svg>
